<svg width="28" height="28" viewBox="0 0 28 28" fill="none" xmlns="http://www.w3.org/2000/svg">
												<path d="M6.04863 18.6668H5.83366C5.18937 18.6668 4.66699 19.1886 4.66699 19.8335C4.66699 20.4784 5.18937 21.0002 5.83366 21.0002H6.04871C6.53185 22.3552 7.81473 23.3335 9.33366 23.3335C10.8526 23.3335 12.1355 22.3552 12.6187 21.0002H15.382C15.8652 22.3552 17.1481 23.3335 18.667 23.3335C20.1926 23.3335 21.4796 22.3463 21.9577 20.9819C23.3498 20.8887 24.511 19.915 24.8176 18.5347L26.2697 11.9984C26.4782 11.0618 26.2532 10.0946 25.6522 9.34603C25.0512 8.59635 24.1562 8.16683 23.1958 8.16683H21.6708C21.5538 7.73054 21.3433 7.3191 21.0453 6.96257C20.4455 6.24479 19.5648 5.8335 18.6294 5.8335H7.00033C6.35604 5.8335 5.83366 6.35531 5.83366 7.00016C5.83366 7.64502 6.35604 8.16683 7.00033 8.16683H18.6294C18.9609 8.16683 19.1637 8.35026 19.2555 8.45964C19.3466 8.56901 19.4907 8.80029 19.4326 9.125L18.1096 16.3898C16.8387 16.5953 15.8044 17.482 15.382 18.6668H12.6187C12.1355 17.3117 10.8526 16.3335 9.33366 16.3335C7.81473 16.3335 6.53178 17.3117 6.04863 18.6668ZM23.8321 10.8055C23.9238 10.9194 24.0657 11.1598 23.9922 11.4925L22.5401 18.0288C22.4722 18.3337 22.241 18.5553 21.9518 18.6314C21.6688 17.8666 21.1205 17.221 20.4053 16.8071L21.554 10.5002H23.1958C23.5365 10.5002 23.7404 10.6916 23.8321 10.8055ZM18.667 18.6668C18.741 18.6668 18.8157 18.6725 18.8658 18.6805C19.4264 18.7899 19.8337 19.2741 19.8337 19.8335C19.8337 20.4772 19.3101 21.0002 18.667 21.0002C18.0238 21.0002 17.5003 20.4772 17.5003 19.8335C17.5003 19.1898 18.0238 18.6668 18.667 18.6668ZM9.33366 18.6668C9.97681 18.6668 10.5003 19.1898 10.5003 19.8335C10.5003 20.4772 9.97681 21.0002 9.33366 21.0002C8.69051 21.0002 8.16699 20.4772 8.16699 19.8335C8.16699 19.1898 8.69051 18.6668 9.33366 18.6668Z" fill="#EA7A9A"/>
												<path d="M4.66667 12.8333H9.33333C9.97762 12.8333 10.5 12.3115 10.5 11.6667C10.5 11.0218 9.97762 10.5 9.33333 10.5H4.66667C4.02238 10.5 3.5 11.0218 3.5 11.6667C3.5 12.3115 4.02238 12.8333 4.66667 12.8333Z" fill="#EA7A9A"/>
												<path d="M2.33366 16.3333H5.83366C6.47795 16.3333 7.00033 15.8115 7.00033 15.1667C7.00033 14.5218 6.47795 14 5.83366 14H2.33366C1.68937 14 1.16699 14.5218 1.16699 15.1667C1.16699 15.8115 1.68937 16.3333 2.33366 16.3333Z" fill="#EA7A9A"/>
												<path d="M3.49967 8.16683C4.144 8.16683 4.66634 7.64449 4.66634 7.00016C4.66634 6.35583 4.144 5.8335 3.49967 5.8335C2.85534 5.8335 2.33301 6.35583 2.33301 7.00016C2.33301 7.64449 2.85534 8.16683 3.49967 8.16683Z" fill="#EA7A9A"/>
												<path d="M2.33366 20.9998C2.97799 20.9998 3.50033 20.4775 3.50033 19.8332C3.50033 19.1888 2.97799 18.6665 2.33366 18.6665C1.68933 18.6665 1.16699 19.1888 1.16699 19.8332C1.16699 20.4775 1.68933 20.9998 2.33366 20.9998Z" fill="#EA7A9A"/>
											</svg>